# xmcd
#
# Track frame offsets:
#	150
#	19226
#	35119
#	53534
#	67616
#	81917
#	104830
#	125793
#	142783
#	157514
#	171457
#	184235
#	199148
#	220574
#	243040
#
# Disc length: 3474 seconds
#
# Revision: 0
# Processed by: cddbd v1.5.2PL0 Copyright (c) Steve Scherf et al.
# Submitted via: dBpowerAMP V4.0
#
DISCID=c80d900f
DTITLE=Chris Murphy - Broken Wheel
DYEAR=1900
DGENRE=Blues
TTITLE0=Butterfly Blues
TTITLE1=Broken Wheel
TTITLE2=Cherry Wine
TTITLE3=Southside Willy
TTITLE4=Bourbon and Water
TTITLE5=Jelly Roll's Last Stomp
TTITLE6=Boomers Blues
TTITLE7=Ring-A-Ding
TTITLE8=Lonely By Day, Lonely By Night
TTITLE9=Crawfish Pie
TTITLE10=Going Back To Mobile
TTITLE11=Salt Pork
TTITLE12=Lazy Lester and The Two Scoops Kid
TTITLE13=Powered By Steam
TTITLE14=Hard Station
EXTD=
EXTT0=
EXTT1=
EXTT2=
EXTT3=
EXTT4=
EXTT5=
EXTT6=
EXTT7=
EXTT8=
EXTT9=
EXTT10=
EXTT11=
EXTT12=
EXTT13=
EXTT14=
PLAYORDER=
